<svg xmlns="http://www.w3.org/2000/svg" width="530.302" height="148.397" viewBox="0 0 530.302 148.397"><path d="M36.373,189.946c0-41.732,32.28-74.195,70.326-74.195s70.319,32.463,70.319,74.195-32.28,74.2-70.319,74.2-70.326-32.463-70.326-74.2m112.974,0c0-27.821-19.591-47.53-42.647-47.53s-42.655,19.709-42.655,47.53,19.6,47.538,42.655,47.538,42.647-19.709,42.647-47.538" transform="translate(-36.373 -115.751)" fill="#7d6458"/><path d="M61.931,115.91H83.425a3.1,3.1,0,0,1,3.089,3.107v139.87a3.1,3.1,0,0,1-3.089,3.1H61.931a3.1,3.1,0,0,1-3.089-3.1V119.017a3.1,3.1,0,0,1,3.089-3.107" transform="translate(103.71 -114.753)" fill="#7d6458"/><path d="M69.834,115.91H89.085a3.017,3.017,0,0,1,2.742,1.768l46.019,100.081a3.02,3.02,0,0,0,5.491,0l46.011-100.081a3.017,3.017,0,0,1,2.742-1.768h19.251a3.037,3.037,0,0,1,3.031,3.041V258.945a3.037,3.037,0,0,1-3.031,3.041H189.724a3.031,3.031,0,0,1-3.024-3.041V189.261a1.821,1.821,0,0,0-3.48-.764l-32.6,71.714a3.024,3.024,0,0,1-2.756,1.775H133.309a3.014,3.014,0,0,1-2.749-1.775l-32.736-72.02a1.754,1.754,0,0,0-3.35.735v70.019a3.031,3.031,0,0,1-3.024,3.041H69.834a3.031,3.031,0,0,1-3.024-3.041V118.951a3.031,3.031,0,0,1,3.024-3.041" transform="translate(153.386 -114.753)" fill="#7d6458"/><path d="M90.235,189.946c0-41.732,32.273-74.195,70.319-74.195s70.319,32.463,70.319,74.195-32.28,74.2-70.319,74.2-70.319-32.463-70.319-74.2m112.974,0c0-27.821-19.6-47.53-42.654-47.53S117.9,162.125,117.9,189.946s19.6,47.538,42.655,47.538,42.654-19.709,42.654-47.538" transform="translate(299.429 -115.751)" fill="#7d6458"/></svg>